# 3ds Max Wavefront OBJ Exporter v0.97b - (c)2007 guruware
# File Created: 23.11.2015 17:27:13

mtllib 3d-model.mtl

#
# object Layer0_001
#

v  -1.1811 0.0000 0.8858
v  -1.1811 0.0000 -0.8858
v  1.1811 0.0000 -0.8858
v  1.1811 0.0000 0.8858
v  1.1811 0.7874 -0.0000
v  -1.1811 0.7874 -0.0000
# 6 vertices

vn 0.0000 -1.0000 -0.0000
vn 1.0000 0.0000 -0.0000
vn 0.0000 0.7474 -0.6644
vn 0.0000 0.7474 0.6644
vn -1.0000 0.0000 -0.0000
# 5 vertex normals

vt 0.0000 0.0000 0.0000
# 1 texture coords

g Layer0_001
usemtl skp_front_default
s off
f 1/1/1 2/1/1 3/1/1 4/1/1 
f 3/1/2 5/1/2 4/1/2 
f 2/1/3 6/1/3 5/1/3 3/1/3 
f 6/1/4 1/1/4 4/1/4 5/1/4 
f 2/1/5 1/1/5 6/1/5 
# 3 polygons - 2 triangles

